<svg id="visual" viewBox="0 0 960 540" width="960" height="540" xmlns="http://www.w3.org/2000/svg" xmlns:xlink="http://www.w3.org/1999/xlink" version="1.1"><rect x="0" y="0" width="960" height="540" fill="#89cce5"></rect><path d="M0 329L22.8 328.7C45.7 328.3 91.3 327.7 137 330.8C182.7 334 228.3 341 274 352.2C319.7 363.3 365.3 378.7 411.2 373.5C457 368.3 503 342.7 548.8 339.8C594.7 337 640.3 357 686 362.3C731.7 367.7 777.3 358.3 823 356.2C868.7 354 914.3 359 937.2 361.5L960 364L960 541L937.2 541C914.3 541 868.7 541 823 541C777.3 541 731.7 541 686 541C640.3 541 594.7 541 548.8 541C503 541 457 541 411.2 541C365.3 541 319.7 541 274 541C228.3 541 182.7 541 137 541C91.3 541 45.7 541 22.8 541L0 541Z" fill="#72fa69"></path><path d="M0 365L22.8 374.2C45.7 383.3 91.3 401.7 137 407.7C182.7 413.7 228.3 407.3 274 404.2C319.7 401 365.3 401 411.2 401.5C457 402 503 403 548.8 397.2C594.7 391.3 640.3 378.7 686 377.3C731.7 376 777.3 386 823 397C868.7 408 914.3 420 937.2 426L960 432L960 541L937.2 541C914.3 541 868.7 541 823 541C777.3 541 731.7 541 686 541C640.3 541 594.7 541 548.8 541C503 541 457 541 411.2 541C365.3 541 319.7 541 274 541C228.3 541 182.7 541 137 541C91.3 541 45.7 541 22.8 541L0 541Z" fill="#5ae265"></path><path d="M0 418L22.8 422.5C45.7 427 91.3 436 137 439.7C182.7 443.3 228.3 441.7 274 433C319.7 424.3 365.3 408.7 411.2 411.5C457 414.3 503 435.7 548.8 441.7C594.7 447.7 640.3 438.3 686 432.2C731.7 426 777.3 423 823 422.2C868.7 421.3 914.3 422.7 937.2 423.3L960 424L960 541L937.2 541C914.3 541 868.7 541 823 541C777.3 541 731.7 541 686 541C640.3 541 594.7 541 548.8 541C503 541 457 541 411.2 541C365.3 541 319.7 541 274 541C228.3 541 182.7 541 137 541C91.3 541 45.7 541 22.8 541L0 541Z" fill="#44cb60"></path><path d="M0 468L22.8 470.3C45.7 472.7 91.3 477.3 137 477C182.7 476.7 228.3 471.3 274 464.7C319.7 458 365.3 450 411.2 453.5C457 457 503 472 548.8 475.3C594.7 478.7 640.3 470.3 686 462.7C731.7 455 777.3 448 823 444.5C868.7 441 914.3 441 937.2 441L960 441L960 541L937.2 541C914.3 541 868.7 541 823 541C777.3 541 731.7 541 686 541C640.3 541 594.7 541 548.8 541C503 541 457 541 411.2 541C365.3 541 319.7 541 274 541C228.3 541 182.7 541 137 541C91.3 541 45.7 541 22.8 541L0 541Z" fill="#2fb459"></path><path d="M0 507L22.8 505.8C45.7 504.7 91.3 502.3 137 503.3C182.7 504.3 228.3 508.7 274 510.2C319.7 511.7 365.3 510.3 411.2 503.8C457 497.3 503 485.7 548.8 479.8C594.7 474 640.3 474 686 477.7C731.7 481.3 777.3 488.7 823 488.8C868.7 489 914.3 482 937.2 478.5L960 475L960 541L937.2 541C914.3 541 868.7 541 823 541C777.3 541 731.7 541 686 541C640.3 541 594.7 541 548.8 541C503 541 457 541 411.2 541C365.3 541 319.7 541 274 541C228.3 541 182.7 541 137 541C91.3 541 45.7 541 22.8 541L0 541Z" fill="#1a9d52"></path></svg>