<svg width="32" height="32" viewBox="0 0 32 32" fill="none" xmlns="http://www.w3.org/2000/svg">
<path d="M16 0C16.2875 0 16.575 0.0625 16.8375 0.18125L28.6062 5.175C29.9812 5.75625 31.0062 7.1125 31 8.75C30.9687 14.95 28.4187 26.2938 17.65 31.45C16.6062 31.95 15.3937 31.95 14.35 31.45C3.58125 26.2938 1.03125 14.95 0.999998 8.75C0.993748 7.1125 2.01875 5.75625 3.39375 5.175L15.1687 0.18125C15.425 0.0625 15.7125 0 16 0ZM16 4.175V27.8062C24.625 23.625 26.9437 14.3812 27 8.8375L16 4.175Z" fill="#22C45F"/>
</svg>
