<svg width="493" height="72" viewBox="0 0 493 72" fill="none" xmlns="http://www.w3.org/2000/svg">
<path d="M129.344 19.304L120.56 53H110.624L105.248 30.824L99.68 53H89.744L81.2 19.304H89.984L94.832 43.832L100.832 19.304H109.856L115.616 43.832L120.512 19.304H129.344ZM131.828 39.56C131.828 36.808 132.34 34.392 133.364 32.312C134.42 30.232 135.844 28.632 137.636 27.512C139.428 26.392 141.428 25.832 143.636 25.832C145.524 25.832 147.172 26.216 148.58 26.984C150.02 27.752 151.124 28.76 151.892 30.008V26.216H160.1V53H151.892V49.208C151.092 50.456 149.972 51.464 148.532 52.232C147.124 53 145.476 53.384 143.588 53.384C141.412 53.384 139.428 52.824 137.636 51.704C135.844 50.552 134.42 48.936 133.364 46.856C132.34 44.744 131.828 42.312 131.828 39.56ZM151.892 39.608C151.892 37.56 151.316 35.944 150.164 34.76C149.044 33.576 147.668 32.984 146.036 32.984C144.404 32.984 143.012 33.576 141.86 34.76C140.74 35.912 140.18 37.512 140.18 39.56C140.18 41.608 140.74 43.24 141.86 44.456C143.012 45.64 144.404 46.232 146.036 46.232C147.668 46.232 149.044 45.64 150.164 44.456C151.316 43.272 151.892 41.656 151.892 39.608ZM182.359 25.928C185.495 25.928 187.991 26.952 189.847 29C191.735 31.016 192.679 33.8 192.679 37.352V53H184.519V38.456C184.519 36.664 184.055 35.272 183.127 34.28C182.199 33.288 180.951 32.792 179.383 32.792C177.815 32.792 176.567 33.288 175.639 34.28C174.711 35.272 174.247 36.664 174.247 38.456V53H166.039V26.216H174.247V29.768C175.079 28.584 176.199 27.656 177.607 26.984C179.015 26.28 180.599 25.928 182.359 25.928ZM196.75 39.56C196.75 36.808 197.262 34.392 198.286 32.312C199.342 30.232 200.766 28.632 202.558 27.512C204.35 26.392 206.35 25.832 208.558 25.832C210.318 25.832 211.918 26.2 213.358 26.936C214.83 27.672 215.982 28.664 216.814 29.912V17.48H225.022V53H216.814V49.16C216.046 50.44 214.942 51.464 213.502 52.232C212.094 53 210.446 53.384 208.558 53.384C206.35 53.384 204.35 52.824 202.558 51.704C200.766 50.552 199.342 48.936 198.286 46.856C197.262 44.744 196.75 42.312 196.75 39.56ZM216.814 39.608C216.814 37.56 216.238 35.944 215.086 34.76C213.966 33.576 212.59 32.984 210.958 32.984C209.326 32.984 207.934 33.576 206.782 34.76C205.662 35.912 205.102 37.512 205.102 39.56C205.102 41.608 205.662 43.24 206.782 44.456C207.934 45.64 209.326 46.232 210.958 46.232C212.59 46.232 213.966 45.64 215.086 44.456C216.238 43.272 216.814 41.656 216.814 39.608ZM256.208 39.176C256.208 39.944 256.16 40.744 256.064 41.576H237.488C237.616 43.24 238.144 44.52 239.072 45.416C240.032 46.28 241.2 46.712 242.576 46.712C244.624 46.712 246.048 45.848 246.848 44.12H255.584C255.136 45.88 254.32 47.464 253.136 48.872C251.984 50.28 250.528 51.384 248.768 52.184C247.008 52.984 245.04 53.384 242.864 53.384C240.24 53.384 237.904 52.824 235.856 51.704C233.808 50.584 232.208 48.984 231.056 46.904C229.904 44.824 229.328 42.392 229.328 39.608C229.328 36.824 229.888 34.392 231.008 32.312C232.16 30.232 233.76 28.632 235.808 27.512C237.856 26.392 240.208 25.832 242.864 25.832C245.456 25.832 247.76 26.376 249.776 27.464C251.792 28.552 253.36 30.104 254.48 32.12C255.632 34.136 256.208 36.488 256.208 39.176ZM247.808 37.016C247.808 35.608 247.328 34.488 246.368 33.656C245.408 32.824 244.208 32.408 242.768 32.408C241.392 32.408 240.224 32.808 239.264 33.608C238.336 34.408 237.76 35.544 237.536 37.016H247.808ZM268.747 30.68C269.707 29.208 270.907 28.056 272.347 27.224C273.787 26.36 275.387 25.928 277.147 25.928V34.616H274.891C272.843 34.616 271.307 35.064 270.283 35.96C269.259 36.824 268.747 38.36 268.747 40.568V53H260.539V26.216H268.747V30.68ZM303.438 29.96C302.83 28.84 301.95 27.992 300.798 27.416C299.678 26.808 298.35 26.504 296.814 26.504C294.158 26.504 292.03 27.384 290.43 29.144C288.83 30.872 288.03 33.192 288.03 36.104C288.03 39.208 288.862 41.64 290.526 43.4C292.222 45.128 294.542 45.992 297.486 45.992C299.502 45.992 301.198 45.48 302.574 44.456C303.982 43.432 305.006 41.96 305.646 40.04H295.23V33.992H313.086V41.624C312.478 43.672 311.438 45.576 309.966 47.336C308.526 49.096 306.686 50.52 304.446 51.608C302.206 52.696 299.678 53.24 296.862 53.24C293.534 53.24 290.558 52.52 287.934 51.08C285.342 49.608 283.31 47.576 281.838 44.984C280.398 42.392 279.678 39.432 279.678 36.104C279.678 32.776 280.398 29.816 281.838 27.224C283.31 24.6 285.342 22.568 287.934 21.128C290.526 19.656 293.486 18.92 296.814 18.92C300.846 18.92 304.238 19.896 306.99 21.848C309.774 23.8 311.614 26.504 312.51 29.96H303.438ZM344.08 26.216V53H335.872V49.352C335.04 50.536 333.904 51.496 332.464 52.232C331.056 52.936 329.488 53.288 327.76 53.288C325.712 53.288 323.904 52.84 322.336 51.944C320.768 51.016 319.552 49.688 318.688 47.96C317.824 46.232 317.392 44.2 317.392 41.864V26.216H325.552V40.76C325.552 42.552 326.016 43.944 326.944 44.936C327.872 45.928 329.12 46.424 330.688 46.424C332.288 46.424 333.552 45.928 334.48 44.936C335.408 43.944 335.872 42.552 335.872 40.76V26.216H344.08ZM348.344 39.56C348.344 36.808 348.856 34.392 349.88 32.312C350.936 30.232 352.36 28.632 354.152 27.512C355.944 26.392 357.944 25.832 360.152 25.832C362.04 25.832 363.688 26.216 365.096 26.984C366.536 27.752 367.64 28.76 368.408 30.008V26.216H376.616V53H368.408V49.208C367.608 50.456 366.488 51.464 365.048 52.232C363.64 53 361.992 53.384 360.104 53.384C357.928 53.384 355.944 52.824 354.152 51.704C352.36 50.552 350.936 48.936 349.88 46.856C348.856 44.744 348.344 42.312 348.344 39.56ZM368.408 39.608C368.408 37.56 367.832 35.944 366.68 34.76C365.56 33.576 364.184 32.984 362.552 32.984C360.92 32.984 359.528 33.576 358.376 34.76C357.256 35.912 356.696 37.512 356.696 39.56C356.696 41.608 357.256 43.24 358.376 44.456C359.528 45.64 360.92 46.232 362.552 46.232C364.184 46.232 365.56 45.64 366.68 44.456C367.832 43.272 368.408 41.656 368.408 39.608ZM390.762 30.68C391.722 29.208 392.922 28.056 394.362 27.224C395.802 26.36 397.402 25.928 399.162 25.928V34.616H396.906C394.858 34.616 393.322 35.064 392.298 35.96C391.274 36.824 390.762 38.36 390.762 40.568V53H382.554V26.216H390.762V30.68ZM401.453 39.56C401.453 36.808 401.965 34.392 402.989 32.312C404.045 30.232 405.469 28.632 407.261 27.512C409.053 26.392 411.053 25.832 413.261 25.832C415.021 25.832 416.621 26.2 418.061 26.936C419.533 27.672 420.685 28.664 421.517 29.912V17.48H429.725V53H421.517V49.16C420.749 50.44 419.645 51.464 418.205 52.232C416.797 53 415.149 53.384 413.261 53.384C411.053 53.384 409.053 52.824 407.261 51.704C405.469 50.552 404.045 48.936 402.989 46.856C401.965 44.744 401.453 42.312 401.453 39.56ZM421.517 39.608C421.517 37.56 420.941 35.944 419.789 34.76C418.669 33.576 417.293 32.984 415.661 32.984C414.029 32.984 412.637 33.576 411.485 34.76C410.365 35.912 409.805 37.512 409.805 39.56C409.805 41.608 410.365 43.24 411.485 44.456C412.637 45.64 414.029 46.232 415.661 46.232C417.293 46.232 418.669 45.64 419.789 44.456C420.941 43.272 421.517 41.656 421.517 39.608ZM466.811 47.048H454.235L452.219 53H443.627L455.819 19.304H465.323L477.515 53H468.827L466.811 47.048ZM464.699 40.712L460.523 28.376L456.395 40.712H464.699ZM489.434 19.304V53H481.226V19.304H489.434Z" fill="black"/>
<path d="M32 4C32.575 4 33.15 4.125 33.675 4.3625L57.2125 14.35C59.9625 15.5125 62.0125 18.225 62 21.5C61.9375 33.9 56.8375 56.5875 35.3 66.9C33.2125 67.9 30.7875 67.9 28.7 66.9C7.1625 56.5875 2.0625 33.9 2 21.5C1.9875 18.225 4.0375 15.5125 6.7875 14.35L30.3375 4.3625C30.85 4.125 31.425 4 32 4ZM32 12.35V59.6125C49.25 51.25 53.8875 32.7625 54 21.675L32 12.35Z" fill="#22C45F"/>
</svg>
